<?xml version="1.0" encoding="UTF-8"?>
<svg width="474px" height="474px" viewBox="0 0 474 474" version="1.1" xmlns="http://www.w3.org/2000/svg" xmlns:xlink="http://www.w3.org/1999/xlink">
    <!-- Generator: Sketch 58 (84663) - https://sketch.com -->
    <title>Combined Shape</title>
    <desc>Created with Sketch.</desc>
    <g id="Page-1" stroke="none" stroke-width="1" fill="none" fill-rule="evenodd">
        <g id="discord" transform="translate(-1.000000, -1.000000)" fill="#FFFFFF" fill-rule="nonzero">
            <g id="Background_Bottom" transform="translate(0.200000, 0.500000)">
                <g id="Group_2">
                    <path d="M412.4,0.499997661 C428.818283,0.499997661 444.565411,7.01562891 456.174891,18.6251087 C467.784371,30.2345885 474.299998,45.9817168 474.299998,62.4 L474.299998,412.1 C474.299998,428.518283 467.784371,444.265411 456.174891,455.874891 C444.565411,467.484371 428.818283,473.999998 412.4,473.999998 L62.7,473.999998 C46.2817168,473.999998 30.5345885,467.484371 18.9251087,455.874891 C7.31562891,444.265411 0.799997661,428.518283 0.799997661,412.1 L0.799997661,62.4 C0.799997661,45.9817168 7.31562891,30.2345885 18.9251087,18.6251087 C30.5345885,7.01562891 46.2817168,0.499997661 62.7,0.499997661 L412.4,0.499997661 Z M198.32184,111.694008 L198.1,111.7 C194.345857,111.929937 190.607,112.363912 186.9,113 C168.8,116.1 152.5,123.4 137.3,133.5 C134.212263,135.279595 131.789625,138.018229 130.4,141.3 C128.4,146.2 125.8,150.9 123.8,155.8 C109.3,191.2 100.2,227.9 98.2,266.3 C97.8,274.7 99.5,280.9 105.4,286.7 C121.7,303 141.6,310.9 164.2,313.5 C169.7,314.1 173.3,312.8 176.2,308.2 C178.4,304.7 181.4,301.7 184,298.4 C185.1,297 186.1,295.6 186.8,294.7 C179.2,290.9 171.5,287.5 164.4,283.3 C155.2,277.8 148.2,270.6 146.7,266.7 C208.7,301.2 270.8,302.3 333.7,266 C322.2,280.7 307.6,289.1 290.3,294.5 C295.4,300.8 300.1,306.7 305.1,312.8 C306.09445,313.646714 307.411321,314.012512 308.7,313.8 C316.1,312.8 323.7,312.2 330.9,310.3 C349.7,305.4 365.6,295.8 377.6,280.2 C378.817504,278.547348 379.482412,276.552624 379.5,274.5 C379.23508,259.585719 377.864656,244.711609 375.4,230 C370.146461,198.644161 360.343071,168.223331 346.3,139.7 C345.253793,137.791373 343.782516,136.149017 342,134.9 C323.8,122.1 303.8,113.9 281.4,111.8 C278.1,111.5 276,112.2 274.5,115.3 C295.2,122 314.9,130.6 332,144.4 C268.1,113.1 204.3,114.6 140.2,145.2 C141.27422,144.197118 142.409743,143.261981 143.6,142.4 C148.8,139 153.9,135.3 159.3,132.2 C172.8,124.3 187.3,118.9 202.3,113.8 C201,112.7 199.5,111.6 198.1,111.7 Z M264.8,208.1 C269.587169,203.163604 276.292621,200.565903 283.156009,200.988856 C290.019397,201.41181 296.355159,204.813172 300.5,210.3 C311.7,224.9 306.5,246.7 290.2,253.2 C287.6,254.3 284.6,254.6 281.8,255.3 C269.6,254.9 258.8,244.8 257.2,232.2 C256.2,223 258.2,214.8 264.8,208.1 Z M183.8,203.2 C200,195.6 220.9,209.1 218.7,227.6 C217.6,236.4 215.3,244.1 208.3,249.8 C204.252261,253.146085 199.151448,254.952623 193.9,254.9 C182.7,254.9 173.2,247.2 170,235.5 C166.4,222.5 172.4,208.6 183.8,203.2 Z" id="Combined-Shape"></path>
                </g>
            </g>
        </g>
    </g>
</svg>