<?xml version="1.0" encoding="UTF-8"?>
<svg width="474px" height="474px" viewBox="0 0 474 474" version="1.1" xmlns="http://www.w3.org/2000/svg" xmlns:xlink="http://www.w3.org/1999/xlink">
    <!-- Generator: Sketch 58 (84663) - https://sketch.com -->
    <title>github</title>
    <desc>Created with Sketch.</desc>
    <g id="Page-1" stroke="none" stroke-width="1" fill="none" fill-rule="evenodd">
        <g id="github" fill-rule="nonzero">
            <path d="M473.3,43.9 L473.3,429.4 C472.935266,430.205498 472.634341,431.038391 472.4,431.891 C470.762094,440.715474 466.779097,448.936385 460.869,455.691 C449.635,468.516 435.235,473.335 418.459,473.316056 C297.259,473.182667 176.057,473.156333 54.853,473.237 C52.545,473.237 50.228,473.205 47.93,473.015 C26.168,471.215 11.314,459.995 3.142,439.874 C1.777,436.516 1.032,432.898 0,429.401 L0,43.9 C2.185,37.89 3.565,31.416 6.7,25.953 C17.178,7.716 33.578,-0.019 54.383,-3.49124099e-05 C175.899,0.110666667 297.414667,0.131666667 418.93,0.063 C421.084,0.063 423.241,0.143 425.392,0.277 C442.963,1.369 456.63,9.419 465.62,24.397 C469.167,30.306 470.797,37.365 473.3,43.897 M204.711,306.378 C195.097,304.761 186.275,303.558 177.577,301.762 C152.591,296.606 135.535,282.652 129.842,257.007 C128.306769,249.469917 127.315215,241.832242 126.875,234.153 C125.623,217.316 129.587,202.079 141.533,189.453 C142.407363,188.158175 142.67493,186.546931 142.266,185.039 C139.198718,174.326107 138.892205,163.011242 141.375,152.148 C144.307,138.637 146.915,136.648 160.032,141.818 C170.405,145.909 180.032,151.863 190.105,156.764 C192.112,157.74 194.812,158.499 196.862,158 C223.452236,151.443455 251.237547,151.44723 277.826,158.011 C279.997855,158.36602 282.226163,157.994108 284.165,156.953 C291.806,152.997 299.042,148.175 306.889,144.725 C312.689,142.174 319.176,141.103 325.425,139.676 C328.136,139.057 329.847,140.476 330.781,143.352 C335.008,156.388 336.387,169.577 332.671,182.89 C331.613,186.684 332.289,189.058 334.899,191.837 C345.316,202.937 350.256,216.193 349.328,231.451 C349.05835,238.062306 348.437474,244.654605 347.468,251.2 C343.368,275.494 330.205,292.275 306.078,299.375 C299.85941,301.109641 293.557016,302.528456 287.195,303.626 C281.552,304.681 275.827,305.287 269.517,306.179 C278.892,316.125 281.056,327.721 281.017,340.035 C280.963667,358.368333 280.923,376.701667 280.895,395.035 C280.895,403.494 286.185,407.416 294.232,404.824 C298.344664,403.540642 302.370058,401.992748 306.283,400.19 C372.164,369.066 406.2,316.273 409.46,244.246 C411.96,189.112 391.039,143.021 348.429,107.792 C309.687,75.761 264.437,63.707 214.718,68.747 C170.933,73.186 133.425,91.262 104.807,124.889 C63.655,173.245 53.427,229.231 70.916,289.4 C87.255,345.615 124.365,383.947 179.416,404.472 C188.425,407.83 193.925,403.872 193.916,394.307 C193.916,386.758 193.816,379.207 193.792,371.66 C193.771,366.013 193.792,360.36 193.792,355.438 C185.092,355.438 177.101,355.887 169.183,355.344 C152.765,354.217 139.568,348.344 133.335,331.278 C129.958,322.03 124.597,313.669 115.851,308.041 C112.533,305.907 106.951,303.332 108.977,299.115 C110.94,295.021 116.684,296.827 120.835,297.915 C131.257,300.648 138.576,307.247 143.998,316.402 C155.042,335.052 173.718,337.845 191.774,330.437 C192.961484,329.899952 193.868652,328.888641 194.274,327.65 C195.931,319.841 198.846,312.674 204.711,306.377 M161.392,341.128 C162.848,339.828 163.76,339.012 164.674,338.198 C163.385,337.158 162.225,335.73 160.754,335.241 C159.999,334.99 158.686,336.414 157.625,337.082 L161.393,341.129 M180.668,339.997 C178.292,338.672 177.053,337.407 175.919,337.497 C174.535,337.605 173.242,338.852 171.909,339.606 C173.038,340.537 174.1,342.096 175.309,342.226 C176.609,342.365 178.061,341.16 180.663,339.998 M149.772,334.831 C151.008,333.025 152.253,331.682 152.054,331.414 C150.928419,329.973674 149.610063,328.695023 148.136,327.614 C148.011,327.514 145.949,329.351 146.086,329.614 C147.18622,331.44092 148.418152,333.185209 149.772,334.833 M188.666,341.782 L192.285,337.847 C191.264,337.154 190.015,335.702 189.268,335.926 C187.807,336.364 186.627,337.737 185.33,338.726 L188.666,341.786 M143.934,321.036 C142.543366,319.80055 141.079727,318.649809 139.551,317.59 C139.438,317.518 137.608,319.564 137.758,319.771 C138.745888,321.095334 139.925493,322.265165 141.258,323.242 C141.425,323.368 142.594,322.161 143.938,321.036 M133.532,314.55 C134.686,313.089 135.875,312.05 135.703,311.719 C135.036249,310.486421 134.113209,309.410962 132.996,308.565 C132.76,308.385 130.81,309.807 130.877,309.965 C131.659363,311.550509 132.546321,313.082223 133.532,314.55" id="Path_24" fill="#FFFFFF"></path>
            <path d="M161.393,341.128 L157.626,337.081 C158.686,336.414 159.999,334.989 160.755,335.24 C162.227,335.729 163.386,337.157 164.675,338.197 L161.393,341.127" id="Path_27"></path>
            <path d="M180.669,339.997 C178.069,341.159 176.619,342.364 175.315,342.225 C174.1,342.096 173.039,340.535 171.915,339.605 C173.247,338.851 174.541,337.605 175.924,337.495 C177.057,337.406 178.298,338.673 180.674,339.995" id="Path_28"></path>
            <path d="M149.777,334.829 C148.422878,333.181188 147.190616,331.436903 146.09,329.61 C145.953,329.344 148.016,327.51 148.141,327.61 C149.61457,328.691259 150.932565,329.969886 152.058,331.41 C152.258,331.677 151.012,333.02 149.777,334.828" id="Path_29"></path>
            <path d="M188.67,341.779 L185.334,338.719 C186.634,337.734 187.811,336.361 189.273,335.919 C190.019,335.695 191.268,337.147 192.289,337.84 L188.67,341.775" id="Path_30"></path>
            <path d="M143.937,321.036 C142.593,322.16 141.424,323.367 141.257,323.242 C139.92428,322.265414 138.74464,321.095549 137.757,319.771 C137.607,319.564 139.438,317.518 139.55,317.589 C141.078707,318.649196 142.542343,319.800269 143.933,321.036" id="Path_31"></path>
            <path d="M133.528,314.55 C132.542321,313.082223 131.655363,311.550509 130.873,309.965 C130.806,309.807 132.756,308.384 132.992,308.565 C134.109209,309.410962 135.032249,310.486421 135.699,311.719 C135.872,312.05 134.682,313.09 133.528,314.55" id="Path_32"></path>
        </g>
    </g>
</svg>