<?xml version="1.0" encoding="UTF-8"?>
<svg width="474px" height="474px" viewBox="0 0 474 474" version="1.1" xmlns="http://www.w3.org/2000/svg" xmlns:xlink="http://www.w3.org/1999/xlink">
    <!-- Generator: Sketch 58 (84663) - https://sketch.com -->
    <title>twitter</title>
    <desc>Created with Sketch.</desc>
    <g id="Page-1" stroke="none" stroke-width="1" fill="none" fill-rule="evenodd">
        <g id="twitter" fill="#FFFFFF" fill-rule="nonzero">
            <path d="M425.97,0 L47.33,0 C21.2220487,0.076338725 0.076338725,21.2220487 0,47.33 L0,425.97 C0.076338725,452.077951 21.2220487,473.223661 47.33,473.3 L425.97,473.3 C452.077951,473.223661 473.223661,452.077951 473.3,425.97 L473.3,47.33 C473.223661,21.2220487 452.077951,0.076338725 425.97,0 Z M371.54,172.754 C369.174,281.613 300.545,357.341 196.419,362.074 C153.819,364.441 123.057,350.241 94.659,333.674 C125.423,338.408 165.659,326.574 186.952,307.643 C156.187,305.277 137.252,288.711 127.79,262.679 C137.256,265.045 146.722,262.679 153.822,262.679 C125.422,253.213 106.492,236.647 104.122,198.779 C111.222,203.512 120.688,205.879 130.154,205.879 C108.854,194.047 94.654,149.079 111.222,120.685 C141.986,153.816 179.85,182.214 241.38,186.947 C224.814,120.685 314.742,85.188 350.24,130.147 C366.805,127.78 378.64,120.681 390.47,115.947 C385.737,132.513 376.27,141.978 364.439,151.447 C376.272,149.08 388.104,146.714 397.57,141.981 C395.206,153.822 383.373,163.288 371.54,172.754 Z" id="Path_23"></path>
        </g>
    </g>
</svg>